<?xml version="1.0" encoding="UTF-8"?>
<!-- Generated by Pixelmator Pro 3.6.18 -->
<svg width="845" height="730" viewBox="0 0 845 730" xmlns="http://www.w3.org/2000/svg">
    <g id="Group">
        <path id="Line" fill="#ffffff" fill-rule="evenodd" stroke="#ffffff" stroke-width="64" stroke-linecap="round" d="M 194.710938 517.039063 L 194.000122 212.000122"/>
        <path id="Line-copy-4" fill="#ffffff" fill-rule="evenodd" stroke="#ffffff" stroke-width="64" stroke-linecap="round" d="M 491.710938 533.039063 L 491.000122 228.000122"/>
        <path id="Line-copy-3" fill="#ffffff" fill-rule="evenodd" stroke="#ffffff" stroke-width="64" stroke-linecap="round" d="M 394.996368 632 L 395.00238 97"/>
        <path id="Line-copy-2" fill="#ffffff" fill-rule="evenodd" stroke="#ffffff" stroke-width="64" stroke-linecap="round" d="M 98.710938 437.039063 L 97.999657 325"/>
        <path id="Line-copy" fill="#ffffff" fill-rule="evenodd" stroke="#ffffff" stroke-width="64" stroke-linecap="round" d="M 294.000275 481 L 295.000732 281"/>
        <path id="Rounded-Corner" fill="#ffffff" fill-rule="evenodd" stroke="#ffffff" stroke-width="20" stroke-linecap="round" stroke-linejoin="round" d="M 615.971619 234.900696 C 698.483032 313.221161 701.880554 443.602112 623.560059 526.113525 L 594.606445 498.630554 C 657.748535 432.109711 655.009521 326.996399 588.488647 263.854309 Z"/>
        <path id="Rounded-Corner-copy" fill="#ffffff" fill-rule="evenodd" stroke="none" d="M 711.75708 80.6875 C 876.329041 229.346588 889.229065 483.272278 740.569946 647.844238 L 682.820984 595.679077 C 802.670166 463.000946 792.270142 258.285675 659.59198 138.436462 Z"/>
        <path id="Semicircle" fill="#ffffff" fill-rule="evenodd" stroke="#ffffff" stroke-width="61" stroke-linecap="round" stroke-linejoin="round" d="M 690.645447 103.345886 L 690.645447 103.345886 C 687.751099 100.116089 682.786438 99.844116 679.556641 102.738464 C 676.326782 105.632874 676.054871 110.597473 678.949219 113.827332 L 690.645447 103.345886 Z"/>
        <path id="Semicircle-copy-2" fill="#ffffff" fill-rule="evenodd" stroke="#ffffff" stroke-width="61" stroke-linecap="round" stroke-linejoin="round" d="M 597.43335 245.715546 L 597.43335 245.715546 C 597.476135 245.763275 597.549561 245.767303 597.59729 245.724518 C 597.64502 245.681732 597.649048 245.608337 597.606262 245.560608 L 597.43335 245.715546 Z"/>
        <path id="Semicircle-copy-3" fill="#ffffff" fill-rule="evenodd" stroke="#ffffff" stroke-width="61" stroke-linecap="round" stroke-linejoin="round" d="M 605.524231 516.638916 L 605.524231 516.638916 C 605.624939 516.679932 605.739807 516.631592 605.780884 516.530884 C 605.821899 516.430237 605.77356 516.315308 605.672852 516.274292 L 605.524231 516.638916 Z"/>
        <path id="Semicircle-copy" fill="#ffffff" fill-rule="evenodd" stroke="#ffffff" stroke-width="61" stroke-linecap="round" stroke-linejoin="round" d="M 706.421692 616.200806 L 706.421692 616.200806 C 703.947327 619.762634 704.828857 624.655945 708.390686 627.130371 C 711.952515 629.604736 716.845825 628.723145 719.32019 625.161377 L 706.421692 616.200806 Z"/>
    </g>
</svg>
